<svg id="Capa_1" enable-background="new 0 0 511.384 511.384" height="512" viewBox="0 0 511.384 511.384" width="512" xmlns="http://www.w3.org/2000/svg"><g><path d="m317.421 294.989c1.374 1.08 3.008 1.604 4.63 1.604 2.222 0 4.422-.982 5.901-2.865 12.841-16.336 19.629-35.953 19.629-56.73 0-50.669-41.222-91.891-91.89-91.891s-91.89 41.222-91.89 91.891c0 20.777 6.788 40.395 19.629 56.73 2.56 3.258 7.275 3.821 10.531 1.262 3.257-2.56 3.821-7.275 1.262-10.531-10.743-13.667-16.422-30.078-16.422-47.461 0-42.397 34.492-76.891 76.89-76.891s76.89 34.493 76.89 76.891c0 17.383-5.679 33.794-16.422 47.461-2.559 3.255-1.994 7.971 1.262 10.53z"/><path d="m423.274 69.415c-44.763-44.763-104.277-69.415-167.582-69.415s-122.819 24.652-167.582 69.415-69.415 104.277-69.415 167.582c0 68.445 29.602 133.541 81.215 178.598 3.121 2.724 7.857 2.402 10.583-.718 2.724-3.121 2.402-7.858-.718-10.583-48.35-42.206-76.08-103.184-76.08-167.297 0-59.298 23.092-115.046 65.021-156.976s97.678-65.021 156.976-65.021 115.046 23.092 156.976 65.021 65.021 97.678 65.021 156.976c0 64.113-27.73 125.091-76.08 167.297-3.12 2.725-3.441 7.462-.718 10.583 1.483 1.698 3.563 2.567 5.653 2.567 1.75 0 3.508-.608 4.93-1.85 51.613-45.057 81.215-110.152 81.215-178.598 0-63.304-24.652-122.818-69.415-167.581z"/><path d="m427.295 236.997c0-36.099-11.088-70.641-32.064-99.893-2.415-3.368-7.101-4.139-10.465-1.725-3.366 2.414-4.139 7.1-1.725 10.466 19.138 26.688 29.254 58.208 29.254 91.151 0 50.128-24.298 97.611-64.998 127.019-3.357 2.426-4.112 7.114-1.687 10.472 1.467 2.029 3.759 3.108 6.085 3.108 1.522 0 3.059-.462 4.387-1.422 21.57-15.585 39.475-36.259 51.776-59.786 12.717-24.318 19.437-51.77 19.437-79.39z"/><path d="m373.531 122.558c2.838-3.019 2.691-7.765-.326-10.602-31.938-30.026-73.672-46.563-117.513-46.563-94.622 0-171.604 76.981-171.604 171.604 0 27.62 6.721 55.072 19.437 79.391 12.302 23.527 30.206 44.201 51.776 59.786 1.328.96 2.864 1.422 4.387 1.422 2.325-.001 4.619-1.079 6.085-3.108 2.426-3.357 1.671-8.046-1.687-10.472-40.7-29.407-64.998-76.891-64.998-127.019 0-86.352 70.252-156.604 156.604-156.604 40.008 0 78.093 15.09 107.238 42.49 3.015 2.837 7.764 2.691 10.601-.325z"/><path d="m271.347 221.904h-31.311c-7.669 0-14.405 5.441-16.019 12.938l-42.845 199.08c-.872 4.05 1.705 8.039 5.754 8.91.532.114 1.063.17 1.586.17 3.458-.001 6.567-2.406 7.324-5.924l42.845-199.08c.137-.635.706-1.095 1.354-1.095h31.311c.648 0 1.218.46 1.354 1.095l13.985 64.984c.871 4.049 4.861 6.622 8.91 5.754 4.049-.871 6.626-4.86 5.754-8.91l-13.985-64.984c-1.612-7.496-8.348-12.938-16.017-12.938z"/><path d="m355.242 496.384h-11.589l-35.575-165.3c-.872-4.051-4.863-6.622-8.91-5.754-4.049.871-6.625 4.86-5.754 8.91l34.896 162.144h-15.344l-49.941-232.06c-.743-3.455-3.798-5.922-7.332-5.922s-6.589 2.467-7.332 5.922l-49.941 232.06h-15.344l6.036-28.048c.872-4.05-1.705-8.039-5.754-8.91-4.048-.866-8.038 1.703-8.91 5.754l-6.716 31.204h-8.852c-4.143 0-7.5 3.357-7.5 7.5s3.357 7.5 7.5 7.5h196.362c4.143 0 7.5-3.357 7.5-7.5s-3.358-7.5-7.5-7.5zm-113.148-111.667 26.753-22.037 11.053 51.358zm36.031 46.929-57.549 33.074 14.331-66.593zm-22.433-130.096 9.603 44.623-23.345 19.228zm-39.365 182.913 70.063-40.266 11.231 52.187h-83.86z"/></g></svg>